<svg width="43" height="24" viewBox="0 0 43 24" fill="none" xmlns="http://www.w3.org/2000/svg">
<path d="M6.98001 24C6.71527 23.9969 6.45116 23.9736 6.19001 23.93H6.12001C3.56001 23.48 1.61001 21.66 0.620007 18.79C0.206427 17.4596 0.000672889 16.0732 0.0100086 14.68V14.41C0.0443826 12.4006 0.353928 10.4054 0.930009 8.48001C0.998424 8.10999 1.16409 7.76484 1.41001 7.48001L1.47001 7.41L1.55001 7.34C1.86382 7.0764 2.26018 6.93133 2.67001 6.93002C2.8289 6.9346 2.98668 6.95804 3.14001 6.99997C2.98582 6.44652 2.90843 5.87455 2.91001 5.30002V5.23001C2.89975 4.55053 3.02539 3.87582 3.27955 3.24558C3.5337 2.61534 3.91125 2.04224 4.39001 1.55997H4.44001C4.70562 1.30809 5.00117 1.08982 5.32001 0.910005C5.70031 0.684842 6.10664 0.506834 6.53001 0.379976C6.83821 0.286232 7.15221 0.212772 7.47001 0.160005H7.57001C7.92136 0.112794 8.2755 0.0893996 8.63001 0.0899975H9.09001C10.9971 0.0306244 12.8627 0.654845 14.35 1.85001C14.689 2.16925 14.9878 2.52857 15.24 2.92001C16.1863 4.47622 16.6427 6.28103 16.55 8.10001V8.41C16.984 8.47604 17.4055 8.60755 17.8 8.80002H17.87H17.93L18.23 8.98001C18.7203 8.29543 19.4236 7.79257 20.23 7.55002C20.4024 7.50156 20.5809 7.47798 20.76 7.48001C21.3246 7.49547 21.8716 7.68007 22.33 8.00998C22.8362 7.31305 23.5616 6.80601 24.39 6.56998C24.5463 6.55516 24.7037 6.55516 24.86 6.56998C25.3672 6.57868 25.8621 6.72749 26.29 6.99997C26.5745 7.17343 26.8336 7.38544 27.06 7.62998C27.3454 7.20747 27.6812 6.82133 28.06 6.48001C28.6582 5.92381 29.4185 5.57342 30.23 5.48001H30.47C31.1964 5.49148 31.899 5.74086 32.47 6.18997H32.53L32.66 6.30997C32.7418 6.17566 32.8391 6.05148 32.95 5.93997C33.0857 5.80308 33.2494 5.69731 33.43 5.62998C33.6705 5.52749 33.9287 5.47316 34.19 5.47H34.37C35.1227 5.5928 35.8202 5.94156 36.37 6.47C36.5383 6.61863 36.6923 6.78267 36.83 6.95999C37.2977 6.66594 37.8376 6.50673 38.39 6.49997C38.6833 6.49851 38.9745 6.54933 39.25 6.64999C40.0184 6.99373 40.6588 7.57116 41.08 8.30002V8.35001C41.3361 8.73685 41.4814 9.18644 41.5 9.64999C41.4153 10.3679 41.2336 11.071 40.96 11.74V11.82C40.81 12.33 40.67 12.87 40.53 13.45H40.78L41.13 13.62C41.4001 13.7408 41.6342 13.9296 41.8095 14.168C41.9848 14.4064 42.0952 14.6862 42.13 14.98V15.2C42.0875 15.8361 41.9211 16.4578 41.64 17.03V17.08C41.4467 17.7835 41.1429 18.4518 40.74 19.06C40.5119 19.2829 40.2604 19.4808 39.99 19.65C39.5154 19.9777 38.9565 20.1618 38.38 20.18C38.1597 20.1777 37.9408 20.144 37.73 20.08C37.1332 19.8678 36.6117 19.4854 36.23 18.98C36.0561 18.787 35.8989 18.5796 35.76 18.36C35.6152 18.6781 35.3814 18.9474 35.0868 19.1355C34.7922 19.3236 34.4495 19.4225 34.1 19.42H33.92C33.3179 19.3416 32.7569 19.0717 32.32 18.65L32.2 18.54C31.4423 19.1303 30.535 19.4974 29.58 19.6C29.3536 19.6146 29.1264 19.6146 28.9 19.6C28.0559 19.6239 27.227 19.371 26.54 18.88L26.24 19.26V19.32C25.8058 19.881 25.2028 20.2877 24.52 20.48C24.374 20.5001 24.226 20.5001 24.08 20.48C23.5177 20.4605 22.9728 20.28 22.51 19.96L22.43 19.9L22.35 19.84C22.23 19.75 22.13 19.65 22.03 19.56C21.9559 19.9817 21.769 20.3755 21.489 20.6995C21.209 21.0235 20.8465 21.2655 20.44 21.4H20.33H20.21H19.96C19.4262 21.3764 18.9083 21.2107 18.46 20.92H18.36L18.27 20.85C18.137 20.7475 18.0101 20.6373 17.89 20.52C17.8132 20.9446 17.6158 21.3382 17.3215 21.6538C17.0271 21.9694 16.6483 22.1938 16.23 22.3H16.09H15.74C15.1807 22.2724 14.6404 22.0888 14.18 21.77H14.12H14.06C13.4956 21.3476 13.0875 20.7496 12.9 20.07C12.588 20.5033 12.2542 20.9205 11.9 21.32C11.5614 21.6757 11.2007 22.0097 10.82 22.32C9.78359 23.3234 8.42035 23.9198 6.98001 24Z" fill="#E33124"/>
<path d="M13.57 2.84005C13.3732 2.55531 13.1488 2.29072 12.9 2.05007C11.6879 1.11832 10.1877 0.640613 8.66 0.700032H8.49C8.12373 0.675998 7.75627 0.675998 7.39 0.700032C7.13017 0.74562 6.87311 0.805707 6.62 0.880025C6.29577 0.973275 5.98612 1.1113 5.7 1.29006C5.49778 1.41577 5.30998 1.56332 5.14 1.73006C4.81035 2.05976 4.55159 2.45338 4.37962 2.88674C4.20766 3.3201 4.12611 3.784 4.14 4.25002V4.32003C4.15691 5.22723 4.4047 6.11518 4.86 6.90004C5.04257 7.22462 5.25339 7.53246 5.49 7.82003C5.71113 8.0716 5.94476 8.31193 6.19 8.54006C6.58522 8.91714 7.05542 9.20674 7.57 9.39003C7.64209 9.40911 7.71791 9.40911 7.79 9.39003C7.83171 9.37022 7.86909 9.34239 7.89999 9.30806C7.93088 9.27374 7.95467 9.23359 7.97 9.19002C7.97593 9.16032 7.97593 9.12976 7.97 9.10006C7.83493 8.95145 7.68775 8.81428 7.53 8.69002C7.23139 8.44165 6.96589 8.15601 6.74 7.84005C6.23461 7.13731 5.9587 6.29562 5.95 5.43007C5.94931 4.99632 6.02724 4.56602 6.18 4.16005C6.37235 3.67415 6.66545 3.23452 7.04 2.87008C7.21703 2.70307 7.41147 2.55556 7.62 2.43007C8.26109 2.04713 8.99325 1.84334 9.74 1.84005C10.3227 1.79169 10.9082 1.88881 11.4441 2.1227C11.9799 2.35659 12.4493 2.71995 12.81 3.18007C13.543 4.35091 13.8925 5.72118 13.81 7.10006C13.7918 8.52603 13.6106 9.94522 13.27 11.33C13.0372 12.2473 12.7568 13.1519 12.43 14.0401C12.033 15.0812 11.5444 16.0852 10.97 17.0401C10.6537 17.5827 10.2925 18.0978 9.89 18.58C8.71 19.94 7.55 20.5801 6.4 20.3701H6.31C5.73666 20.2845 5.19927 20.0383 4.76 19.6601C3.69 18.7501 3.15 17.15 3.15 15.01C3.16808 13.7477 3.31891 12.4908 3.6 11.26C3.7 10.77 3.86 10.16 4.06 9.44002C4.06 9.24002 3.84 8.91002 3.41 8.44002C3.12446 8.11856 2.7863 7.84805 2.41 7.64003C2.33 7.64003 2.28 7.64003 2.24 7.64003C2.19664 7.73295 2.16313 7.83018 2.14 7.93007C1.60741 9.713 1.31813 11.5597 1.28 13.4201V13.69C1.27264 14.914 1.45479 16.1318 1.82 17.3001C2.07683 18.3037 2.60894 19.2156 3.35634 19.9329C4.10374 20.6503 5.03669 21.1446 6.05 21.3601H6.11C6.69704 21.4291 7.29208 21.3671 7.8523 21.1786C8.41253 20.9901 8.92403 20.6798 9.35 20.27C9.67752 19.9887 9.98807 19.6882 10.28 19.3701C10.6398 18.9543 10.9738 18.5167 11.28 18.06C11.845 17.1836 12.3335 16.2603 12.74 15.3001C13.1979 14.2686 13.5822 13.2059 13.89 12.1201C14.354 10.4932 14.5995 8.81175 14.62 7.12008C14.701 5.62096 14.3356 4.13147 13.57 2.84005Z" fill="#FFED00"/>
<path d="M40.31 14.32H40.25C40.12 14.48 40 14.65 39.88 14.82C39.5793 15.212 39.2447 15.5768 38.88 15.91C38.6768 16.1067 38.4559 16.2841 38.22 16.44C38.2442 15.4782 38.358 14.5207 38.56 13.58C38.78 12.47 39.03 11.47 39.29 10.58C39.63 9.45001 39.79 8.89005 39.79 8.87005C39.7631 8.70101 39.6981 8.54027 39.6 8.40002C39.3658 7.96743 39.0206 7.60503 38.6 7.35003C37.72 7.04003 36.6 8.08004 35.12 10.61C34.89 11.05 34.77 11.27 34.76 11.28C35 10.21 35.31 8.99 35.7 7.63C35.7 7.45 35.51 7.16999 35.13 6.80999C34.8275 6.4986 34.4424 6.28009 34.02 6.18005C33.9587 6.15703 33.8912 6.15703 33.83 6.18005C33.7628 6.32638 33.7157 6.48107 33.69 6.64001C33.26 8.15001 32.89 9.72002 32.57 11.34C32.49 11.8 32.42 12.22 32.36 12.59L32.16 12.96C31.8489 13.5456 31.4946 14.1072 31.1 14.64C30.9369 14.8608 30.7563 15.0682 30.56 15.26C30.2384 15.5866 29.822 15.8036 29.37 15.88H29.26C29.0436 15.902 28.8259 15.8529 28.64 15.74C28.4282 15.5674 28.2639 15.3437 28.1624 15.0901C28.0609 14.8364 28.0257 14.5611 28.06 14.29C28.0699 13.8365 28.1201 13.3847 28.21 12.94C28.21 12.88 28.21 12.86 28.28 12.85C28.7662 12.6593 29.2136 12.3814 29.6 12.03C29.8559 11.7816 30.0963 11.5178 30.32 11.24C30.5921 10.8982 30.8394 10.5372 31.06 10.16C31.5271 9.37613 31.7981 8.49105 31.85 7.58001C31.8331 7.38309 31.7744 7.19202 31.6778 7.01958C31.5813 6.84714 31.449 6.6973 31.29 6.58001C30.9945 6.32649 30.6193 6.18495 30.23 6.18005H30.14C29.6737 6.23377 29.2363 6.43318 28.89 6.74999C28.6073 6.99606 28.3584 7.27854 28.15 7.59002C27.8389 8.04401 27.5647 8.5222 27.33 9.02001C26.9994 9.74789 26.7253 10.5001 26.51 11.27C26.3224 11.9252 26.1854 12.5939 26.1 13.27V13.35C25.7979 13.9798 25.4641 14.5939 25.1 15.19C24.8139 15.6487 24.4999 16.0896 24.16 16.51C24.1974 15.4626 24.3144 14.4196 24.51 13.39C24.77 12.03 25.07 10.65 25.42 9.27001C25.64 8.46001 25.75 8.04004 25.75 7.99004C25.75 7.94004 25.57 7.64003 25.22 7.41003C25.0146 7.26239 24.7609 7.19808 24.51 7.23003C23.61 7.42337 22.4366 9.09003 20.99 12.23L20.68 12.93C20.88 11.93 21.08 11.08 21.29 10.25C21.5 9.41999 21.62 8.93002 21.62 8.90002C21.5987 8.77614 21.5307 8.66516 21.43 8.59002C21.3033 8.45288 21.1481 8.34511 20.9754 8.27428C20.8026 8.20346 20.6165 8.17132 20.43 8.18005C19.8 8.33005 19.01 9.25005 18.06 10.93C17.48 12 16.99 12.99 16.61 13.93C16.8 12.93 16.99 12.14 17.17 11.4C17.4033 10.4867 17.5233 9.99671 17.53 9.93005C17.53 9.75005 17.33 9.54004 16.91 9.30004C16.6069 9.12416 16.2602 9.0375 15.91 9.05004C15.8589 9.06312 15.8111 9.087 15.77 9.12005C15.7462 9.13257 15.7263 9.1512 15.7122 9.17406C15.6981 9.19693 15.6905 9.22315 15.69 9.24999C15.2033 11.1367 14.7933 12.9333 14.46 14.64C14.2651 15.6947 14.1316 16.7598 14.06 17.83V18.02C14.039 18.3132 14.0889 18.6071 14.2055 18.8769C14.3221 19.1467 14.502 19.3844 14.73 19.57C14.9409 19.7339 15.1941 19.8345 15.46 19.86C15.63 19.86 15.78 19.52 15.91 18.95C16.145 17.8343 16.4421 16.7326 16.8 15.65C17.3152 14.1786 17.9541 12.7535 18.71 11.39C19.01 10.85 19.18 10.55 19.23 10.48C19.02 11.4 18.82 12.33 18.63 13.26C18.3601 14.5082 18.1863 15.7753 18.11 17.05C18.0842 17.4891 18.1848 17.9264 18.4 18.31C18.4976 18.471 18.6269 18.6105 18.78 18.72C19.0023 18.872 19.2613 18.9618 19.53 18.98H19.58C19.7466 18.94 19.8966 18.64 20.03 18.08C20.2765 16.8412 20.6107 15.6215 21.03 14.43C21.3157 13.5817 21.6496 12.7503 22.03 11.94C22.41 11.1467 22.84 10.3367 23.32 9.51C23.0733 10.5833 22.8533 11.6134 22.66 12.6C22.4273 13.7579 22.2769 14.9309 22.21 16.11C22.1881 16.5024 22.2637 16.894 22.43 17.25C22.534 17.4413 22.6813 17.6056 22.86 17.73C23.0794 17.9102 23.3561 18.0059 23.64 18C23.9809 17.8713 24.2764 17.6453 24.49 17.35C24.7039 17.1048 24.8947 16.8403 25.06 16.56C25.3269 16.1144 25.5609 15.6498 25.76 15.17C25.9 14.79 26.02 14.46 26.1 14.17V14.23C26.0974 14.673 26.158 15.1141 26.28 15.54C26.4342 16.0849 26.7963 16.5474 27.2882 16.8279C27.7801 17.1085 28.3625 17.1847 28.91 17.04C29.5979 16.9623 30.25 16.6922 30.7912 16.2606C31.3325 15.8289 31.7411 15.2534 31.97 14.6C32.06 14.38 32.14 14.18 32.21 13.99C32.21 14.25 32.21 14.46 32.21 14.64C32.1865 14.9794 32.239 15.3197 32.3635 15.6362C32.4881 15.9528 32.6816 16.2376 32.93 16.47C33.1249 16.6559 33.3565 16.799 33.61 16.89H33.67C33.83 16.89 33.97 16.67 34.1 16.19C34.304 15.2844 34.5544 14.3899 34.85 13.51C35.2223 12.46 35.7085 11.454 36.3 10.51C36.6409 9.95686 37.0254 9.43184 37.45 8.93999C37.18 9.93999 36.96 10.94 36.79 11.72C36.5564 12.8306 36.4059 13.9571 36.34 15.09C36.3175 15.7819 36.5567 16.4568 37.01 16.98C37.2137 17.2462 37.473 17.4646 37.77 17.62C37.9316 17.646 38.0968 17.6381 38.2552 17.5968C38.4136 17.5555 38.5617 17.4816 38.69 17.38C38.8665 17.2674 39.0307 17.1368 39.18 16.99C39.5477 16.5816 39.8512 16.1197 40.08 15.62C40.2664 15.2501 40.3882 14.851 40.44 14.44C40.34 14.36 40.33 14.33 40.31 14.32ZM28.31 12.32C28.31 12.11 28.41 11.9 28.47 11.69C28.6415 11.1516 28.8452 10.624 29.08 10.11C29.2818 9.66616 29.5227 9.24113 29.8 8.84002C30.0743 8.43536 30.412 8.07746 30.8 7.78002C30.8395 7.88902 30.8598 8.00409 30.86 8.12005C30.832 8.64528 30.7065 9.16068 30.49 9.64001C30.0616 10.7333 29.312 11.6712 28.34 12.33L28.31 12.32Z" fill="#FFED00"/>
<path d="M5.61002 10.26C5.45002 10.84 5.33002 11.32 5.25002 11.71C4.98943 12.832 4.84864 13.9784 4.83002 15.13C4.83002 16.76 5.20002 17.9701 5.83002 18.5401C6.04004 18.7204 6.29641 18.8381 6.57002 18.88H6.80002C7.58105 18.7486 8.27843 18.3137 8.74002 17.6701C9.07496 17.2691 9.37599 16.8409 9.64002 16.39V16.33C10.17 15.4544 10.6154 14.5302 10.97 13.57C11.277 12.7487 11.5374 11.9107 11.75 11.06C12.0599 9.80301 12.2243 8.51459 12.24 7.22005C12.3222 6.17551 12.0888 5.13036 11.57 4.22005C11.3689 3.97612 11.1095 3.78687 10.8159 3.66976C10.5222 3.55265 10.2038 3.51148 9.89002 3.55007H9.83002C9.36552 3.55533 8.91176 3.69037 8.52002 3.94002H8.47002C8.38236 3.99303 8.30172 4.05686 8.23002 4.13002C8.01467 4.32622 7.84707 4.56911 7.74002 4.84004C7.65517 5.06372 7.61114 5.30083 7.61002 5.54006C7.62417 6.06161 7.7949 6.56685 8.10002 6.99007C8.22815 7.17221 8.37942 7.33691 8.55002 7.48006C8.78189 7.66301 8.99616 7.86721 9.19002 8.09004L9.34002 8.26003L9.43002 8.45003C9.55527 8.69808 9.62036 8.97213 9.62002 9.25002V9.50002L9.55002 9.73006C9.47474 9.98432 9.34679 10.2199 9.17451 10.4215C9.00222 10.623 8.78945 10.7861 8.55002 10.9C8.26919 11.0466 7.95676 11.1221 7.64002 11.1201H7.39002C6.73165 10.9941 6.11787 10.6975 5.61002 10.26Z" fill="#FFED00"/>
<path d="M19.97 4.90002C19.964 4.93309 19.964 4.96694 19.97 5C19.9746 5.04655 19.9746 5.09346 19.97 5.14001C19.9756 5.18652 19.9756 5.23353 19.97 5.28003C19.9699 5.29668 19.9652 5.31296 19.9563 5.32709C19.9475 5.34121 19.9349 5.35264 19.92 5.36005H19.82H19.65H19.44H19.07C19.07 5.36005 19 5.36005 18.99 5.36005C18.9805 5.30043 18.9805 5.23968 18.99 5.18005C18.99 5.08005 18.99 4.94003 18.99 4.78003C18.99 4.62003 18.99 4.44005 18.99 4.24005V3.15002C18.99 2.99002 18.99 2.86002 18.99 2.77002C18.99 2.68002 18.99 2.69001 19.09 2.64001C19.1728 2.5825 19.2695 2.54801 19.37 2.54004H19.67H20.28H20.52C20.5992 2.55502 20.6735 2.5893 20.7363 2.63989C20.7991 2.69048 20.8485 2.75579 20.88 2.83002C20.9529 3.0144 20.987 3.21188 20.98 3.41003V3.73004C20.98 3.82004 20.98 3.91004 20.98 3.98004C20.972 4.10345 20.9451 4.22487 20.9 4.34003L20.82 4.45001L20.76 4.51001C20.76 4.51001 20.76 4.56006 20.81 4.62006L20.9 4.80005C20.9 4.87005 20.96 4.93005 20.98 4.99005C20.9962 5.03187 20.9962 5.07824 20.98 5.12006L20.87 5.17004H20.73H20.59H20.47C20.467 5.15351 20.467 5.13659 20.47 5.12006L20.4 5.02002L20.33 4.89001L20.25 4.78003L20.18 4.72003C20.1682 4.70624 20.1538 4.69492 20.1376 4.68671C20.1214 4.67849 20.1037 4.67351 20.0856 4.67212C20.049 4.66931 20.0128 4.68115 19.985 4.70502C19.9572 4.72889 19.9399 4.76287 19.9371 4.79944C19.9343 4.83601 19.9461 4.87218 19.97 4.90002ZM19.97 4.26001C19.9601 4.28919 19.9601 4.32085 19.97 4.35004C19.97 4.35004 19.97 4.35004 20.03 4.35004C20.0497 4.35472 20.0703 4.35472 20.09 4.35004C20.1143 4.31951 20.1345 4.28585 20.15 4.25C20.1557 4.18679 20.1557 4.1232 20.15 4.06C20.155 3.98341 20.155 3.9066 20.15 3.83002C20.1549 3.75677 20.1549 3.6833 20.15 3.61005C20.1381 3.539 20.1214 3.46882 20.1 3.40002C20.1072 3.37046 20.1072 3.33956 20.1 3.31C20.0906 3.30555 20.0804 3.30328 20.07 3.30328C20.0596 3.30328 20.0494 3.30555 20.04 3.31H19.98C19.9686 3.34235 19.9686 3.37768 19.98 3.41003C19.9743 3.48326 19.9743 3.55678 19.98 3.63C19.98 3.73 19.98 3.82003 19.98 3.91003C19.98 4.00003 19.98 4.08002 19.98 4.15002C19.9761 4.18714 19.9694 4.22389 19.96 4.26001H19.97Z" fill="#E33124"/>
<path d="M23.19 2.36005C23.2283 2.4198 23.2491 2.48904 23.25 2.56C23.2744 2.70233 23.2911 2.84592 23.3 2.99005C23.3105 3.17324 23.3105 3.35686 23.3 3.54004C23.3 3.74004 23.3 3.94006 23.3 4.12006C23.3 4.30006 23.3 4.48006 23.3 4.62006C23.2956 4.73323 23.2719 4.84477 23.23 4.95001C23.1984 4.98746 23.1568 5.01521 23.11 5.03003L22.87 5.10004H22.56L22.23 5.15003H21.92H21.74C21.699 5.14888 21.6587 5.13839 21.6223 5.11933C21.5859 5.10026 21.5544 5.07314 21.53 5.04004C21.4744 4.96514 21.4337 4.88028 21.41 4.79004C21.3743 4.67621 21.3508 4.55884 21.34 4.44V4.02002C21.34 3.92002 21.34 3.82002 21.34 3.71002C21.34 3.60002 21.34 3.48006 21.34 3.37006C21.34 3.26006 21.34 3.15004 21.34 3.04004C21.3552 2.94158 21.3786 2.84453 21.41 2.75C21.4259 2.66855 21.4564 2.59065 21.5 2.52002C21.5233 2.46619 21.5662 2.42327 21.62 2.40003C21.6863 2.36868 21.7572 2.34841 21.83 2.34003L22.13 2.28003H22.47H22.74C22.8297 2.26961 22.9203 2.26961 23.01 2.28003C23.0443 2.27763 23.0786 2.28366 23.11 2.29761C23.1414 2.31156 23.1689 2.33301 23.19 2.36005ZM22.58 4.36005C22.58 4.42005 22.58 4.46004 22.58 4.48004C22.58 4.50004 22.58 4.48004 22.64 4.48004L22.7 4.42005C22.7236 4.37497 22.7436 4.32816 22.76 4.28003C22.8007 4.13027 22.8176 3.97502 22.81 3.82001C22.7986 3.6585 22.7752 3.49808 22.74 3.34003C22.7331 3.29355 22.716 3.24916 22.69 3.21002H22.63C22.63 3.21002 22.63 3.21002 22.57 3.21002C22.5598 3.25276 22.5598 3.2973 22.57 3.34003C22.5647 3.43329 22.5647 3.5268 22.57 3.62006C22.5647 3.71999 22.5647 3.82012 22.57 3.92005C22.57 4.02005 22.57 4.10005 22.57 4.17005C22.57 4.24005 22.58 4.35006 22.58 4.37006V4.36005Z" fill="#E33124"/>
<path d="M25.38 4.77004L25.25 4.83004C25.1871 4.84048 25.1229 4.84048 25.06 4.83004H24.88C24.8378 4.84379 24.7923 4.84379 24.75 4.83004C24.7098 4.79632 24.6759 4.75569 24.65 4.71004L24.56 4.52004C24.528 4.46051 24.4912 4.40368 24.45 4.35006C24.45 4.35006 24.39 4.28006 24.36 4.29006C24.33 4.30006 24.36 4.29002 24.36 4.38002C24.3519 4.43975 24.3519 4.50029 24.36 4.56002V4.74007C24.3772 4.78169 24.3772 4.82845 24.36 4.87008C24.3218 4.89783 24.277 4.91505 24.23 4.92006H24.04H23.84C23.8213 4.92896 23.8008 4.93355 23.78 4.93355C23.7593 4.93355 23.7388 4.92896 23.72 4.92006C23.7134 4.87363 23.7134 4.82649 23.72 4.78005C23.72 4.70005 23.72 4.60006 23.72 4.48006C23.72 4.36006 23.72 4.23004 23.72 4.08004V3.63002C23.72 3.48002 23.72 3.32006 23.72 3.17006C23.72 3.02006 23.72 2.89004 23.72 2.77004C23.72 2.65004 23.72 2.54004 23.72 2.46004C23.7138 2.41023 23.7138 2.35983 23.72 2.31002C23.7492 2.27656 23.7874 2.25231 23.83 2.24007C23.8873 2.21263 23.9477 2.19248 24.01 2.18007H24.22H24.44H24.63H24.74C24.74 2.18007 24.8 2.18005 24.82 2.28005C24.8425 2.34511 24.8593 2.41205 24.87 2.48006C24.87 2.55006 24.87 2.62007 24.87 2.68007C24.87 2.74007 24.87 2.76003 24.93 2.76003C24.99 2.76003 24.93 2.76002 25 2.69002C25.031 2.63329 25.0545 2.5728 25.07 2.51003L25.13 2.31002C25.125 2.26014 25.125 2.20993 25.13 2.16005H25.22L25.4 2.11007H25.62H26.04C26.0761 2.10117 26.1139 2.10117 26.15 2.11007C26.16 2.1562 26.16 2.20389 26.15 2.25002C26.15 2.33002 26.15 2.43007 26.15 2.55007C26.15 2.67007 26.15 2.81004 26.15 2.96004C26.15 3.11004 26.15 3.27006 26.15 3.42006C26.15 3.57006 26.15 3.73002 26.15 3.88002V4.29006C26.15 4.41006 26.15 4.51006 26.15 4.60006C26.1557 4.64655 26.1557 4.69358 26.15 4.74007C26.15 4.74007 26.15 4.79002 26.04 4.81002C25.9737 4.82034 25.9063 4.82034 25.84 4.81002H25.63C25.5633 4.81002 25.5233 4.81002 25.51 4.81002C25.51 4.81002 25.51 4.74006 25.51 4.67006C25.5051 4.60015 25.5051 4.52995 25.51 4.46004C25.51 4.39004 25.51 4.32004 25.51 4.27004C25.51 4.22004 25.51 4.19002 25.51 4.19002C25.4817 4.19437 25.4549 4.20586 25.4322 4.22335C25.4094 4.24083 25.3915 4.26378 25.38 4.29006C25.38 4.35006 25.38 4.42002 25.31 4.50002L25.25 4.71004C25.2988 4.71499 25.3446 4.7361 25.38 4.77004Z" fill="#E33124"/>
<path d="M26.82 1.96002C26.8757 1.91606 26.9407 1.88532 27.01 1.87006L27.36 1.79004H27.78H28.19H28.52C28.61 1.79004 28.67 1.79006 28.68 1.87006C28.6829 1.92001 28.6829 1.97006 28.68 2.02002C28.68 2.11002 28.68 2.20001 28.68 2.32001C28.68 2.44001 28.68 2.56 28.68 2.69C28.6955 2.81285 28.6955 2.93715 28.68 3.06C28.6728 3.16864 28.6421 3.27448 28.59 3.37006C28.5716 3.4099 28.5453 3.44555 28.5126 3.47479C28.48 3.50404 28.4416 3.52624 28.4 3.54004C28.4 3.54004 28.33 3.54004 28.34 3.54004L28.44 3.61005C28.4839 3.64268 28.5213 3.6834 28.55 3.73004C28.5794 3.79637 28.5964 3.86752 28.6 3.94C28.622 4.03879 28.622 4.14126 28.6 4.24005C28.5731 4.30544 28.5234 4.35875 28.46 4.39001L28.17 4.48004H27.8H27.39H27.05C26.9772 4.49254 26.9028 4.49254 26.83 4.48004C26.7824 4.46693 26.7404 4.43887 26.71 4.40002C26.6814 4.35481 26.6642 4.30331 26.66 4.25C26.66 4.25 26.66 4.13 26.66 4C26.66 3.87 26.66 3.72005 26.66 3.55005V3C26.66 2.81 26.66 2.63002 26.66 2.46002C26.66 2.29002 26.66 2.15003 26.66 2.03003C26.709 1.99784 26.7631 1.97417 26.82 1.96002ZM27.95 3.29004C27.9419 3.31949 27.9419 3.35055 27.95 3.38C27.9593 3.38445 27.9696 3.38678 27.98 3.38678C27.9904 3.38678 28.0006 3.38445 28.01 3.38C28.0297 3.38468 28.0503 3.38468 28.07 3.38C28.1012 3.35071 28.1223 3.31217 28.13 3.27002C28.1684 3.16418 28.1887 3.0526 28.19 2.94C28.1783 2.8213 28.1548 2.70409 28.12 2.59003C28.1256 2.55693 28.1256 2.52315 28.12 2.49005H28.05H27.99C27.9799 2.52263 27.9799 2.55745 27.99 2.59003C27.9849 2.65994 27.9849 2.73014 27.99 2.80005V3.02002C27.99 3.09002 27.99 3.15001 27.99 3.20001L27.95 3.29004ZM27.95 4.29004H28.01H28.07C28.0828 4.28616 28.0947 4.27971 28.1051 4.27112C28.1154 4.26253 28.1238 4.25198 28.13 4.24005C28.1784 4.18105 28.2033 4.10626 28.2 4.03003C28.192 3.95715 28.1717 3.88612 28.14 3.82001C28.1236 3.81577 28.1064 3.81577 28.09 3.82001H28.04H27.98C27.9741 3.85979 27.9741 3.90022 27.98 3.94V4.07001C27.98 4.07001 27.98 4.15 27.98 4.19L27.95 4.29004Z" fill="#E33124"/>
<path d="M31.06 1.57003C31.0946 1.635 31.1151 1.7066 31.12 1.78006C31.12 1.89006 31.12 2.04004 31.12 2.20004C31.12 2.36004 31.12 2.56004 31.12 2.76004V3.34005C31.12 3.52005 31.12 3.69005 31.12 3.84005C31.1128 3.95067 31.0857 4.05908 31.04 4.16006C31.04 4.16006 30.99 4.16008 30.93 4.24008L30.69 4.31002L30.37 4.37008H30.04H29.73H29.51C29.4697 4.37012 29.43 4.36114 29.3937 4.34384C29.3573 4.32654 29.3253 4.30131 29.3 4.27005C29.2373 4.1945 29.1928 4.10553 29.17 4.01004C29.139 3.89504 29.1156 3.77814 29.1 3.66006V3.24008V2.93008C29.1 2.82008 29.1 2.71005 29.1 2.59005C29.0902 2.48027 29.0902 2.36982 29.1 2.26004C29.1083 2.16132 29.1285 2.06398 29.16 1.97006C29.16 1.88006 29.22 1.81008 29.25 1.74008C29.2792 1.69058 29.3205 1.6493 29.37 1.62008L29.58 1.56002H29.88H30.23H30.83C30.9059 1.54014 30.9861 1.54363 31.06 1.57003ZM30.44 3.57003C30.4327 3.61306 30.4327 3.65701 30.44 3.70004C30.44 3.70004 30.44 3.70004 30.5 3.70004C30.56 3.70004 30.5 3.70004 30.56 3.64004C30.5855 3.59593 30.6056 3.54892 30.62 3.50003C30.6601 3.35357 30.677 3.20177 30.67 3.05008C30.6593 2.88518 30.6359 2.72131 30.6 2.56002C30.5931 2.51355 30.576 2.46922 30.55 2.43008H30.49L30.43 2.49008C30.4183 2.52923 30.4183 2.57092 30.43 2.61007C30.4246 2.70667 30.4246 2.80346 30.43 2.90005C30.43 3.00005 30.43 3.10003 30.43 3.19003C30.43 3.28003 30.43 3.37004 30.43 3.45004C30.4366 3.49305 30.44 3.53652 30.44 3.58004V3.57003Z" fill="#E33124"/>
<path d="M32.07 3.55999C32.0655 3.56936 32.0632 3.57964 32.0632 3.59002C32.0632 3.60039 32.0655 3.61067 32.07 3.62005C32.0662 3.65327 32.0662 3.6868 32.07 3.72002L32.13 3.84002L32.19 3.96001V4.05999H32.04C31.9703 4.06971 31.8997 4.06971 31.83 4.05999H31.64C31.58 4.05999 31.55 4.06003 31.55 3.98003V3.83001C31.55 3.74001 31.55 3.64 31.55 3.51V3.10003C31.55 2.94003 31.55 2.79 31.55 2.63V2.17003C31.55 2.01003 31.55 1.88 31.55 1.76C31.55 1.64 31.55 1.54001 31.55 1.46001C31.5429 1.41697 31.5429 1.37305 31.55 1.33001H31.65H31.84H32.06H32.28H32.46C32.4955 1.31701 32.5345 1.31701 32.57 1.33001C32.5735 1.35991 32.5735 1.39013 32.57 1.42003C32.57 1.42003 32.57 1.50999 32.57 1.55999C32.5757 1.61651 32.5757 1.67351 32.57 1.73003L32.63 1.88C32.6455 1.91584 32.6656 1.94951 32.69 1.98003C32.7037 1.98793 32.7192 1.99206 32.735 1.99206C32.7508 1.99206 32.7663 1.98793 32.78 1.98003C32.78 1.98003 32.78 1.98003 32.84 1.92003C32.85 1.8739 32.85 1.82615 32.84 1.78002C32.8435 1.72341 32.8435 1.66665 32.84 1.61004C32.84 1.55004 32.84 1.49004 32.84 1.43004V1.29003V1.23003H32.97C33.0363 1.22017 33.1037 1.22017 33.17 1.23003C33.2363 1.21987 33.3037 1.21987 33.37 1.23003C33.3914 1.23169 33.412 1.23902 33.4296 1.25133C33.4471 1.26365 33.4611 1.28049 33.47 1.30004C33.4747 1.35327 33.4747 1.40678 33.47 1.46001C33.47 1.54001 33.47 1.65001 33.47 1.77001C33.47 1.89001 33.47 2.04 33.47 2.2C33.47 2.36 33.47 2.51003 33.47 2.67003V3.14C33.47 3.29 33.47 3.43004 33.47 3.55004C33.47 3.67004 33.47 3.76002 33.47 3.84002C33.47 3.92002 33.47 3.95001 33.47 3.96001H33.37H33.17H32.94H32.51C32.4715 3.95686 32.4356 3.93896 32.41 3.91002C32.3806 3.86661 32.3571 3.81953 32.34 3.77001C32.321 3.7084 32.2976 3.64826 32.27 3.59002C32.2424 3.54257 32.2088 3.49888 32.17 3.46001C32.1256 3.48006 32.09 3.51559 32.07 3.55999Z" fill="#E33124"/>
<path d="M35.81 1.67002C35.7674 1.68149 35.7226 1.68149 35.68 1.67002H35.36C35.3442 1.66342 35.3272 1.66001 35.31 1.66001C35.2928 1.66001 35.2758 1.66342 35.26 1.67002C35.2302 1.89553 35.2135 2.12257 35.21 2.35001C35.2 2.43639 35.2 2.52365 35.21 2.61002C35.2046 2.68326 35.2046 2.75676 35.21 2.82999C35.2014 2.88298 35.2014 2.93704 35.21 2.99003C35.2187 3.00777 35.2313 3.02325 35.2469 3.03538C35.2625 3.04751 35.2807 3.05591 35.3 3.05998C35.3293 3.06919 35.3607 3.06919 35.39 3.05998C35.3956 3.02352 35.3956 2.98644 35.39 2.94999C35.395 2.90011 35.395 2.8499 35.39 2.80003V2.65C35.3787 2.59727 35.3787 2.54276 35.39 2.49003C35.4078 2.45899 35.4316 2.43178 35.46 2.41001C35.4927 2.40108 35.5273 2.40108 35.56 2.41001H35.66H35.74C35.7462 2.43969 35.7462 2.4703 35.74 2.49998C35.7455 2.56653 35.7455 2.63344 35.74 2.69999V2.96C35.7453 3.05326 35.7453 3.14677 35.74 3.24003C35.7458 3.32326 35.7458 3.4068 35.74 3.49003C35.74 3.57003 35.74 3.63003 35.74 3.68003C35.7309 3.70036 35.7171 3.71818 35.6997 3.73209C35.6823 3.74601 35.6618 3.75557 35.64 3.75999C35.5633 3.79563 35.4828 3.82249 35.4 3.84H35.09H34.76H34.45H34.22C34.1789 3.83885 34.1387 3.82837 34.1023 3.8093C34.0659 3.79024 34.0343 3.76312 34.01 3.73002C33.9545 3.65139 33.9138 3.56326 33.89 3.47001C33.8533 3.353 33.8298 3.23226 33.82 3.11002V2.68998C33.82 2.58998 33.82 2.48003 33.82 2.37003C33.82 2.26003 33.82 2.14001 33.82 2.03001C33.82 1.92001 33.82 1.79998 33.82 1.68998C33.8363 1.58847 33.8597 1.48824 33.89 1.38999C33.9059 1.30854 33.9364 1.23064 33.98 1.16001C34.0036 1.10398 34.046 1.05798 34.1 1.03001C34.1697 1.02089 34.2403 1.02089 34.31 1.03001C34.413 1.01869 34.517 1.01869 34.62 1.03001H35.31C35.3999 1.02393 35.4901 1.02393 35.58 1.03001C35.6291 1.01636 35.6809 1.01636 35.73 1.03001C35.7619 1.0618 35.7799 1.10496 35.78 1.15C35.7849 1.20322 35.7849 1.25675 35.78 1.30998L35.72 1.46C35.7484 1.48709 35.7711 1.51967 35.7866 1.55576C35.802 1.59186 35.81 1.63075 35.81 1.67002Z" fill="#E33124"/>
</svg>
