<svg xmlns="http://www.w3.org/2000/svg" viewBox="0 0 42.39 24"><defs><style>.cls-1{fill:#e33124;}.cls-2{fill:#ffed00;}</style></defs><g id="Layer_2" data-name="Layer 2"><g id="Layer_2-2" data-name="Layer 2"><path class="cls-1" d="M7,24a4.22,4.22,0,0,1-.79-.07H6.13c-2.57-.44-4.52-2.27-5.5-5.14v0A13.54,13.54,0,0,1,0,14.64v-.27A22.08,22.08,0,0,1,.92,8.44a2.28,2.28,0,0,1,.48-1l.07-.07.08-.07a1.7,1.7,0,0,1,1.11-.4A1.84,1.84,0,0,1,3.13,7,6.57,6.57,0,0,1,2.9,5.3V5.24A5,5,0,0,1,4.39,1.57l0-.05.05,0A4.61,4.61,0,0,1,5.35.83,5.44,5.44,0,0,1,6.56.3c.26-.08.55-.14.94-.22h.1A8,8,0,0,1,8.66,0h.47a8,8,0,0,1,5.26,1.76l0,0,0,0a5.88,5.88,0,0,1,.9,1.07,9.1,9.1,0,0,1,1.31,5.18c0,.1,0,.21,0,.31a4.14,4.14,0,0,1,1.26.4l.06,0,.07,0,.29.19a3.87,3.87,0,0,1,2-1.44,2.31,2.31,0,0,1,.52-.06,2.78,2.78,0,0,1,1.57.52,3.79,3.79,0,0,1,2.07-1.43,2.42,2.42,0,0,1,.47,0A2.85,2.85,0,0,1,26.43,7a3.59,3.59,0,0,1,.77.64l0,0a5.92,5.92,0,0,1,1-1.15,3.81,3.81,0,0,1,2.17-.94h.25a3.32,3.32,0,0,1,1.94.71l.06,0,.14.13A1.64,1.64,0,0,1,33.1,6l0,0a1.66,1.66,0,0,1,.48-.31,1.91,1.91,0,0,1,.76-.15h.18a3.67,3.67,0,0,1,2,1l.05,0,0,0c.15.15.31.31.46.49a2.93,2.93,0,0,1,1.55-.46,2.57,2.57,0,0,1,.87.15,3.92,3.92,0,0,1,1.82,1.66l0,0,0,.05a2.6,2.6,0,0,1,.42,1.3,8,8,0,0,1-.55,2.08l0,.09c-.15.5-.3,1-.44,1.63h.25l.36.16a1.72,1.72,0,0,1,1,1.36v.22a4.66,4.66,0,0,1-.49,1.83l0,.05a7,7,0,0,1-1.18,1.78l0,0a4.72,4.72,0,0,1-.74.6l0,0a2.91,2.91,0,0,1-1.61.53,2.05,2.05,0,0,1-.65-.1,3.33,3.33,0,0,1-1.5-1.09,4.61,4.61,0,0,1-.46-.63A1.81,1.81,0,0,1,34,19.48h-.18a2.89,2.89,0,0,1-1.6-.78l0,0-.12-.11a5.17,5.17,0,0,1-2.61,1.06,5.6,5.6,0,0,1-.69.05,3.78,3.78,0,0,1-2.35-.73l-.3.38-.05.06a3.36,3.36,0,0,1-1.72,1.17,2.12,2.12,0,0,1-.44.05,2.91,2.91,0,0,1-1.56-.53L22.26,20,22.19,20a3.09,3.09,0,0,1-.32-.29,2.37,2.37,0,0,1-1.6,1.84l-.11,0-.11,0H19.8a3,3,0,0,1-1.51-.47l-.1-.06L18.1,21a4.29,4.29,0,0,1-.38-.33,2.25,2.25,0,0,1-1.65,1.79l-.15,0h-.23a2.93,2.93,0,0,1-1.55-.53l-.07,0-.06,0a3.21,3.21,0,0,1-1.16-1.71c-.28.4-.61.81-1,1.25l0,0,0,0a13.08,13.08,0,0,1-1.08,1A5.92,5.92,0,0,1,7,24Z"/><path class="cls-2" d="M13.57,2.81A4.7,4.7,0,0,0,12.9,2,6.52,6.52,0,0,0,8.66.67H8.49A5.84,5.84,0,0,0,7.4.72,4.6,4.6,0,0,0,6.62.9a3.51,3.51,0,0,0-.91.4,2.84,2.84,0,0,0-.57.44,3.43,3.43,0,0,0-1,2.53v.06a5.38,5.38,0,0,0,.72,2.59,8.76,8.76,0,0,0,.64.91,8.37,8.37,0,0,0,.69.72,3.91,3.91,0,0,0,1.38.86.42.42,0,0,0,.22-.05A.28.28,0,0,0,8,9.17a.29.29,0,0,0,0-.09,3.58,3.58,0,0,0-.44-.41,5,5,0,0,1-.75-.81,4.21,4.21,0,0,1-.8-2.4,3.89,3.89,0,0,1,.23-1.28A3.56,3.56,0,0,1,7,2.9a2.77,2.77,0,0,1,.58-.45,4.2,4.2,0,0,1,2.12-.62,3.53,3.53,0,0,1,3.07,1.34,6.65,6.65,0,0,1,1,3.93,18.56,18.56,0,0,1-.54,4.22A22.84,22.84,0,0,1,12.42,14a18.84,18.84,0,0,1-1.45,3,10.83,10.83,0,0,1-1.09,1.54c-1.17,1.36-2.34,2-3.49,1.79H6.3a3.29,3.29,0,0,1-1.55-.71C3.68,18.74,3.14,17.14,3.14,15a18,18,0,0,1,.45-3.76c.11-.49.26-1.1.47-1.82,0-.2-.22-.52-.66-1a3.5,3.5,0,0,0-1-.79l0,0c-.08,0-.14,0-.17,0a1.32,1.32,0,0,0-.1.29,20.31,20.31,0,0,0-.87,5.49v.27a12,12,0,0,0,.54,3.62A5.57,5.57,0,0,0,6,21.35h.07a4.06,4.06,0,0,0,3.23-1.09,12.83,12.83,0,0,0,.93-.9q.63-.75,1-1.32a20.6,20.6,0,0,0,1.51-2.74,23.21,23.21,0,0,0,1.14-3.19,19,19,0,0,0,.74-5A7.5,7.5,0,0,0,13.57,2.81Z"/><path class="cls-2" d="M40.32,14.32s0,0-.07,0l-.37.5a7.74,7.74,0,0,1-1,1.09,4.32,4.32,0,0,1-.65.53,16.23,16.23,0,0,1,.33-2.86c.23-1.11.47-2.11.74-3l.5-1.7a1.11,1.11,0,0,0-.19-.48,2.79,2.79,0,0,0-1-1c-.89-.32-2,.72-3.49,3.25l-.36.68c.24-1.07.56-2.29.94-3.65,0-.18-.18-.46-.56-.83A2.37,2.37,0,0,0,34,6.19a.22.22,0,0,0-.19,0,1.53,1.53,0,0,0-.15.45c-.43,1.51-.8,3.08-1.12,4.71-.08.45-.15.87-.2,1.24-.06.1-.13.22-.21.38a12.81,12.81,0,0,1-1.06,1.67,5.11,5.11,0,0,1-.54.62,2.25,2.25,0,0,1-1.18.63h-.12a1,1,0,0,1-.62-.14A1.61,1.61,0,0,1,28,14.36,7.11,7.11,0,0,1,28.18,13a.08.08,0,0,1,.06-.09,4.33,4.33,0,0,0,1.33-.82,10.26,10.26,0,0,0,.72-.78A8.27,8.27,0,0,0,31,10.23a5.48,5.48,0,0,0,.79-2.57v0a1.39,1.39,0,0,0-.55-1.05,1.61,1.61,0,0,0-1.06-.39h-.05a2.23,2.23,0,0,0-1.25.57,4.37,4.37,0,0,0-.75.85A9.19,9.19,0,0,0,27.34,9a15.55,15.55,0,0,0-.83,2.25,16.07,16.07,0,0,0-.41,2.05l0,.07a19.29,19.29,0,0,1-1,1.84,15.15,15.15,0,0,1-.94,1.32,20.62,20.62,0,0,1,.34-3.12c.26-1.36.57-2.73.92-4.12.21-.81.32-1.23.32-1.27s-.18-.36-.53-.58a1,1,0,0,0-.71-.19c-.89.19-2.06,1.87-3.52,5l-.31.71c.2-1,.4-1.86.61-2.69S21.58,9,21.58,9v0a.51.51,0,0,0-.2-.31,1.31,1.31,0,0,0-1-.41C19.7,8.38,18.91,9.3,18,11c-.59,1.07-1.07,2.06-1.46,3h0c.2-.94.39-1.79.57-2.53q.34-1.37.36-1.47c0-.18-.21-.39-.62-.63a2,2,0,0,0-1.06-.25l-.14.07a.19.19,0,0,0-.08.13c-.49,1.9-.89,3.69-1.22,5.4a25.26,25.26,0,0,0-.4,3.18V18a1.83,1.83,0,0,0,.67,1.56,1.47,1.47,0,0,0,.72.28h0c.17,0,.33-.33.45-.91a32,32,0,0,1,.89-3.3,29.53,29.53,0,0,1,1.91-4.26c.3-.53.48-.84.53-.91-.22.93-.42,1.85-.61,2.78a24.47,24.47,0,0,0-.51,3.8,2.31,2.31,0,0,0,.28,1.26,1.58,1.58,0,0,0,.39.4,1.46,1.46,0,0,0,.75.26h0c.16,0,.31-.34.45-.89a28.11,28.11,0,0,1,1-3.66,25.42,25.42,0,0,1,1-2.49q.57-1.18,1.29-2.43h0c-.24,1.07-.46,2.1-.65,3.09a25,25,0,0,0-.45,3.51,2.45,2.45,0,0,0,.22,1.15,1.55,1.55,0,0,0,.42.48,1.21,1.21,0,0,0,.79.27,2,2,0,0,0,.85-.66,5.85,5.85,0,0,0,.56-.79,9.53,9.53,0,0,0,.7-1.39c.15-.37.26-.7.35-1v.06a4.61,4.61,0,0,0,.18,1.31A2.15,2.15,0,0,0,28.86,17a3.68,3.68,0,0,0,3.05-2.44c.09-.22.18-.42.25-.61a5.73,5.73,0,0,0,0,.65,2.26,2.26,0,0,0,.72,1.83,1.79,1.79,0,0,0,.69.42h.06c.15,0,.3-.22.42-.7.26-1.1.51-2,.75-2.68a15.25,15.25,0,0,1,1.46-3,13.75,13.75,0,0,1,1.15-1.57q-.42,1.58-.66,2.79a22.73,22.73,0,0,0-.45,3.36,2.74,2.74,0,0,0,.67,1.9,2.14,2.14,0,0,0,.76.63,1.12,1.12,0,0,0,.91-.24,3.12,3.12,0,0,0,.49-.38A5.54,5.54,0,0,0,40,15.62a3.66,3.66,0,0,0,.36-1.19C40.35,14.37,40.34,14.33,40.32,14.32Zm-12-2c.05-.2.11-.41.17-.63a16.47,16.47,0,0,1,.6-1.58,9.78,9.78,0,0,1,.73-1.27,4.76,4.76,0,0,1,1-1.06.84.84,0,0,1,.07.35,4.24,4.24,0,0,1-.38,1.51,5.7,5.7,0,0,1-2.15,2.69Z"/><path class="cls-2" d="M5.62,10.26c-.16.58-.28,1.07-.37,1.45a16.9,16.9,0,0,0-.41,3.43c0,1.63.37,2.84,1,3.4a1.43,1.43,0,0,0,.75.34l.08,0h.14A2.94,2.94,0,0,0,8.7,17.67a9.19,9.19,0,0,0,.91-1.28l0-.06A17.32,17.32,0,0,0,11,13.57a21.45,21.45,0,0,0,.77-2.51,16.94,16.94,0,0,0,.5-3.83,5.2,5.2,0,0,0-.68-3,1.86,1.86,0,0,0-1.68-.68H9.83A2.55,2.55,0,0,0,8.52,4L8.46,4h0l-.23.19a2.19,2.19,0,0,0-.47.68,2.3,2.3,0,0,0-.12.71A2.55,2.55,0,0,0,8.13,7a2.93,2.93,0,0,0,.45.49,5.45,5.45,0,0,1,.64.6l.14.17.1.2a1.88,1.88,0,0,1,.19.8v.24l-.08.24a1.93,1.93,0,0,1-1,1.17,2.08,2.08,0,0,1-.92.22H7.4A3.81,3.81,0,0,1,5.62,10.26Z"/><path class="cls-1" d="M20,4.9v.25a.57.57,0,0,1,0,.13.12.12,0,0,1-.05.08l-.1,0-.18,0-.2,0-.21,0h-.16a.14.14,0,0,1-.09,0,.44.44,0,0,1,0-.18c0-.11,0-.25,0-.41s0-.34,0-.53V3.73c0-.19,0-.36,0-.52s0-.28,0-.37A.25.25,0,0,1,19,2.7a.61.61,0,0,1,.28-.09,1.39,1.39,0,0,1,.3,0l.32,0h.3a1.29,1.29,0,0,1,.23,0,.48.48,0,0,1,.37.29,1.27,1.27,0,0,1,.09.58v.31a2.09,2.09,0,0,1,0,.26,1.23,1.23,0,0,1,0,.2.44.44,0,0,1-.06.16.44.44,0,0,1-.08.1.17.17,0,0,1-.06.06l0,0s0,0,0,0a.41.41,0,0,0,.05.11l.09.19a1.46,1.46,0,0,1,.07.19c0,.06,0,.1,0,.12l-.1,0-.15,0h-.14l-.11,0s0,0,0,0l-.06-.11L20.17,5a1,1,0,0,0-.08-.11.1.1,0,0,0-.07,0S20,4.87,20,4.9Zm0-.64a.13.13,0,0,0,0,.1,0,0,0,0,0,.05,0s0,0,.07,0a.28.28,0,0,0,.05-.11A.87.87,0,0,0,20.21,4a1.62,1.62,0,0,0,0-.22,1.79,1.79,0,0,0,0-.23,1.55,1.55,0,0,0,0-.21.36.36,0,0,0,0-.09l-.07,0a.13.13,0,0,0-.06.05.19.19,0,0,0,0,.09,1.75,1.75,0,0,0,0,.23V3.9c0,.09,0,.17,0,.24Z"/><path class="cls-1" d="M23.2,2.36a.52.52,0,0,1,.06.21c0,.11,0,.26,0,.43s0,.35,0,.55a5.61,5.61,0,0,1,0,.58c0,.18,0,.35,0,.5a.92.92,0,0,1-.08.32s-.05,0-.11.08l-.24.07-.31.06-.34,0-.3,0a.86.86,0,0,1-.23,0,.27.27,0,0,1-.21-.1.79.79,0,0,1-.13-.26,1.7,1.7,0,0,1-.06-.35,2.77,2.77,0,0,1,0-.42,3,3,0,0,1,0-.31c0-.11,0-.22,0-.33s0-.23,0-.34a2.47,2.47,0,0,1,.06-.29,1.65,1.65,0,0,1,.09-.22.31.31,0,0,1,.12-.13l.21-.06.3-.05.35,0h.6A.3.3,0,0,1,23.2,2.36Zm-.62,2a.23.23,0,0,0,0,.13,0,0,0,0,0,.05,0s0,0,.06-.06a.26.26,0,0,0,.06-.14,1.41,1.41,0,0,0,0-.45,3.11,3.11,0,0,0-.06-.49.53.53,0,0,0-.06-.13.09.09,0,0,0-.06,0,.17.17,0,0,0-.06.06.21.21,0,0,0,0,.12,2.62,2.62,0,0,0,0,.29c0,.1,0,.2,0,.3a2.18,2.18,0,0,1,0,.25A.85.85,0,0,1,22.58,4.37Z"/><path class="cls-1" d="M25.38,4.77a.23.23,0,0,1-.13.06l-.18,0h-.19a.23.23,0,0,1-.13,0s-.06,0-.09-.11l-.1-.2-.1-.17q0-.08-.09-.06s0,0,0,.1l0,.17a1.25,1.25,0,0,1,0,.19.14.14,0,0,1,0,.12.33.33,0,0,1-.12.06,1.2,1.2,0,0,1-.2,0,.6.6,0,0,1-.19,0,.2.2,0,0,1-.13-.06.41.41,0,0,1,0-.14c0-.08,0-.18,0-.3s0-.25,0-.39a3.53,3.53,0,0,1,0-.46c0-.15,0-.3,0-.45s0-.29,0-.41,0-.22,0-.31a.3.3,0,0,1,0-.15.2.2,0,0,1,.1-.07l.18,0,.22,0,.22,0h.3s.06,0,.08.11,0,.12.05.2,0,.13,0,.19,0,.09.06.09.05,0,.08-.08l.06-.18.06-.2c0-.07,0-.11.05-.14a.17.17,0,0,1,.09-.06L25.53,2l.22,0L26,2h.19a.19.19,0,0,1,.11.05s0,.06,0,.14a1.3,1.3,0,0,1,0,.31c0,.12,0,.25,0,.41s0,.3,0,.46v.87c0,.12,0,.22,0,.3s0,.13,0,.15a.2.2,0,0,1-.11.07l-.21,0h-.21a.22.22,0,0,1-.12,0,.24.24,0,0,1,0-.14,1.8,1.8,0,0,1,0-.22,1.37,1.37,0,0,0,0-.19s0-.08,0-.08a.18.18,0,0,0-.12.11,1.18,1.18,0,0,0-.07.2,1.66,1.66,0,0,0-.06.21C25.43,4.71,25.41,4.76,25.38,4.77Z"/><path class="cls-1" d="M26.82,2a.54.54,0,0,1,.2-.09l.35-.07.42-.05a2.8,2.8,0,0,1,.41,0,1.55,1.55,0,0,1,.33,0c.09,0,.14.05.16.09a1.12,1.12,0,0,1,0,.15,2,2,0,0,1,0,.29,2.22,2.22,0,0,1,0,.37,2.36,2.36,0,0,1,0,.38,1.18,1.18,0,0,1-.09.3.31.31,0,0,1-.19.17l-.07,0,0,0,.1.06a.36.36,0,0,1,.11.13.52.52,0,0,1,.06.2.88.88,0,0,1,0,.3.25.25,0,0,1-.15.15.92.92,0,0,1-.28.09l-.38,0-.41,0a2.18,2.18,0,0,1-.34,0,.69.69,0,0,1-.22,0,.25.25,0,0,1-.12-.08.58.58,0,0,1-.05-.14s0-.13,0-.25,0-.28,0-.46,0-.35,0-.55,0-.37,0-.54,0-.31,0-.43A.43.43,0,0,1,26.82,2ZM28,3.29s0,.08,0,.1a0,0,0,0,0,.05,0,.1.1,0,0,0,.07,0,.44.44,0,0,0,.06-.1.83.83,0,0,0,.05-.34,1.8,1.8,0,0,0-.07-.35.19.19,0,0,0-.05-.09s0,0-.06,0a.07.07,0,0,0-.06,0,.12.12,0,0,0,0,.09,1.48,1.48,0,0,0,0,.21,1.55,1.55,0,0,0,0,.22c0,.07,0,.13,0,.18A.51.51,0,0,1,28,3.29Zm0,1s0,0,0,0H28a.11.11,0,0,0,.07,0l.06,0A.26.26,0,0,0,28.22,4a.37.37,0,0,0-.06-.21.07.07,0,0,0-.05,0s0,0-.06,0l-.06,0a.05.05,0,0,0,0,0,.37.37,0,0,0,0,.12s0,.09,0,.13V4.2A.18.18,0,0,1,28,4.26Z"/><path class="cls-1" d="M31.06,1.57a.52.52,0,0,1,.06.21,4,4,0,0,1,.05.43,4.68,4.68,0,0,1,0,.55,5.61,5.61,0,0,1,0,.58,3.84,3.84,0,0,1,0,.5,1.19,1.19,0,0,1-.07.32.23.23,0,0,1-.12.08,1,1,0,0,1-.24.07l-.31.06-.34,0-.3,0h-.23a.27.27,0,0,1-.21-.11.83.83,0,0,1-.12-.25,1.28,1.28,0,0,1-.07-.36l0-.41c0-.1,0-.2,0-.32s0-.22,0-.33a3,3,0,0,1,0-.33,2.21,2.21,0,0,1,.07-.3.63.63,0,0,1,.09-.22.3.3,0,0,1,.12-.13l.2-.06.3-.05c.12,0,.23,0,.35,0l.34,0h.26A.3.3,0,0,1,31.06,1.57Zm-.62,2a.19.19,0,0,0,0,.12.05.05,0,0,0,.05,0,.15.15,0,0,0,.07-.07.81.81,0,0,0,.06-.13,1.85,1.85,0,0,0,.05-.46,2.93,2.93,0,0,0-.07-.48.27.27,0,0,0-.05-.13s0,0-.07,0,0,0-.06.05a.86.86,0,0,0,0,.13V2.9c0,.1,0,.2,0,.3a1.93,1.93,0,0,0,0,.25Z"/><path class="cls-1" d="M32.08,3.56a.05.05,0,0,0,0,.06.44.44,0,0,0,0,.1.61.61,0,0,0,0,.12l.06.12a.22.22,0,0,1,0,.1,0,0,0,0,1,0,.06l-.15,0-.2,0a.57.57,0,0,1-.19,0c-.05,0-.08,0-.08-.07V3.94a2.82,2.82,0,0,1,0-.31c0-.13,0-.27,0-.42V2.28c0-.15,0-.29,0-.41s0-.22,0-.29a.33.33,0,0,1,0-.13.23.23,0,0,1,.11,0l.18,0,.22,0,.22,0h.19l.1,0a.36.36,0,0,1,0,.09s0,.09,0,.15a1.24,1.24,0,0,0,0,.16.53.53,0,0,0,0,.15.3.3,0,0,0,.07.11A.12.12,0,0,0,33,2,.09.09,0,0,0,33,2a.76.76,0,0,0,0-.14,1.22,1.22,0,0,0,0-.17c0-.06,0-.12,0-.17a.93.93,0,0,1,0-.14s0-.06,0-.07l.14,0,.2,0h.19a.13.13,0,0,1,.11.07s0,.08,0,.16,0,.19,0,.32,0,.27,0,.42,0,.32,0,.48v.47c0,.15,0,.28,0,.4s0,.22,0,.29,0,.12,0,.12l-.11,0-.19,0-.24,0-.23,0h-.19a.19.19,0,0,1-.11,0,1.16,1.16,0,0,1-.06-.15.89.89,0,0,0-.08-.17.27.27,0,0,0-.1-.13S32.15,3.54,32.08,3.56Z"/><path class="cls-1" d="M35.82,1.67a.29.29,0,0,1-.14,0h-.16a.38.38,0,0,0-.15,0,.22.22,0,0,0-.1,0c0,.26-.05.48-.06.69v.25a1.38,1.38,0,0,0,0,.22.49.49,0,0,0,.06.16.11.11,0,0,0,.09.07.09.09,0,0,0,.08,0,.18.18,0,0,0,0-.11.68.68,0,0,0,0-.15V2.67a.63.63,0,0,1,0-.16.24.24,0,0,1,.08-.09.17.17,0,0,1,.1,0h.1l.08,0h0a.23.23,0,0,1,0,.1s0,.12,0,.2A2.44,2.44,0,0,1,36,3c0,.09,0,.18,0,.27l0,.26c0,.07,0,.14,0,.18s0,.06-.11.09a1,1,0,0,1-.23.07l-.31,0-.34,0h-.53a.25.25,0,0,1-.21-.11A.7.7,0,0,1,34,3.58,1.68,1.68,0,0,1,34,3.22a2.77,2.77,0,0,1,0-.42c0-.1,0-.2,0-.32s0-.23,0-.34,0-.23,0-.34a2.27,2.27,0,0,1,.06-.3c0-.09.06-.16.09-.23a.34.34,0,0,1,.12-.12.76.76,0,0,1,.21-.06l.31,0h.69l.27,0a.41.41,0,0,1,.15,0,.14.14,0,0,1,.05.13.39.39,0,0,1,0,.15.53.53,0,0,1,0,.15Z"/></g></g></svg>